HIERARCHY
ROOT Torso
{
	OFFSET 0.000000 0.000000 0.000000
	CHANNELS 6 Xposition Yposition Zposition Zrotation Yrotation Xrotation
	JOINT TorsoExt
	{
		OFFSET 0.000000 0.000000 0.000000
		CHANNELS 6 Xposition Yposition Zposition Zrotation Yrotation Xrotation
		JOINT LeftHip
		{
			OFFSET 0.000000 0.010000 -0.060000
			CHANNELS 3 Zrotation Yrotation Xrotation
			JOINT LeftThigh
			{
				OFFSET 0.055000 0.000000 -0.055000
				CHANNELS 6 Xposition Yposition Zposition Zrotation Yrotation Xrotation
				JOINT LeftLeg
				{
					OFFSET 0.000000 -0.015000 -0.120000
					CHANNELS 6 Xposition Yposition Zposition Zrotation Yrotation Xrotation
					JOINT LeftFoot
					{
						OFFSET 0.000000 0.010000 -0.100000
						CHANNELS 6 Xposition Yposition Zposition Zrotation Yrotation Xrotation
						End Site
						{
							OFFSET 0.000000 -0.090000 -0.035000
						}
					}
				}
			}
		}
		JOINT RightHip
		{
			OFFSET 0.000000 0.010000 -0.060000
			CHANNELS 3 Zrotation Yrotation Xrotation
			JOINT RightThigh
			{
				OFFSET -0.055000 0.000000 -0.055000
				CHANNELS 6 Xposition Yposition Zposition Zrotation Yrotation Xrotation
				JOINT RightLeg
				{
					OFFSET 0.000000 -0.015000 -0.120000
					CHANNELS 6 Xposition Yposition Zposition Zrotation Yrotation Xrotation
					JOINT RightFoot
					{
						OFFSET 0.000000 0.010000 -0.100000
						CHANNELS 6 Xposition Yposition Zposition Zrotation Yrotation Xrotation
						End Site
						{
							OFFSET 0.000000 -0.090000 -0.035000
						}
					}
				}
			}
		}
	}
	JOINT Neck
	{
		OFFSET 0.000000 -0.000000 0.040000
		CHANNELS 6 Xposition Yposition Zposition Zrotation Yrotation Xrotation
		JOINT Head
		{
			OFFSET 0.000000 -0.000000 0.100000
			CHANNELS 6 Xposition Yposition Zposition Zrotation Yrotation Xrotation
			End Site
			{
				OFFSET 0.000000 -0.000000 0.070000
			}
		}
	}
	JOINT LeftUpperarm
	{
		OFFSET 0.098000 -0.000000 0.075000
		CHANNELS 6 Xposition Yposition Zposition Zrotation Yrotation Xrotation
		JOINT LeftLowerarm
		{
			OFFSET 0.000000 -0.090000 0.009000
			CHANNELS 6 Xposition Yposition Zposition Zrotation Yrotation Xrotation
			End Site
			{
				OFFSET 0.000000 -0.105000 0.000000
			}
		}
	}
	JOINT RightUpperarm
	{
		OFFSET -0.098000 -0.000000 0.075000
		CHANNELS 6 Xposition Yposition Zposition Zrotation Yrotation Xrotation
		JOINT RightLowerarm
		{
			OFFSET 0.000000 -0.090000 0.009000
			CHANNELS 6 Xposition Yposition Zposition Zrotation Yrotation Xrotation
			End Site
			{
				OFFSET 0.000000 -0.105000 0.000000
			}
		}
	}
}
MOTION
Frames: 13
Frame Time: 0.041667
0.000000 0.000000 0.000000 -3.683354 -2.214022 -5.652208 0.000000 0.000000 0.000000 0.000000 -0.000000 0.000000 -31.493063 2.576826 12.723536 0.055000 0.000000 -0.055000 -155.496975 -9.082623 30.905373 -0.000000 -0.015000 -0.120000 0.000050 0.000068 -35.876938 0.000000 0.010000 -0.100000 -179.357284 25.222065 -15.783088 34.501908 -5.273893 13.295458 -0.055000 -0.000000 -0.055000 146.484745 3.763764 28.193351 0.000000 -0.015000 -0.120000 0.000024 -0.000072 -81.017935 -0.000000 0.010000 -0.100000 162.067931 -19.906465 3.312601 0.000000 -0.000000 0.040000 1.775290 -0.000000 0.000001 -0.000000 0.000000 0.100000 0.000000 0.000000 25.131469 0.098000 -0.000000 0.075000 160.014284 -4.351899 80.155016 -0.000000 -0.090000 0.009000 -17.668243 -4.781089 1.520798 -0.098000 0.000000 0.075000 -160.243041 -0.122657 85.008357 -0.000000 -0.090000 0.009000 14.146777 3.052464 0.768965 
0.000000 0.000000 0.000000 -3.957594 -2.667033 -5.848552 0.000000 0.000000 0.000000 0.000001 -0.000000 -0.000001 -31.493067 2.576833 12.723534 0.055000 0.000000 -0.055000 -155.756085 -9.710118 30.082335 -0.000000 -0.015000 -0.120000 0.000106 0.000028 -35.802226 -0.000000 0.010000 -0.100000 -179.100496 25.292693 -16.358528 34.501884 -5.273892 13.295460 -0.055000 -0.000000 -0.055000 146.187550 3.119403 29.577485 -0.000001 -0.015000 -0.120000 0.000001 0.000009 -82.782002 -0.000000 0.010000 -0.100000 162.327983 -20.434290 0.920083 0.000000 -0.000000 0.040000 1.940158 -0.000000 -0.000001 0.000001 -0.000000 0.100000 -0.000001 0.000000 24.702498 0.098000 -0.000000 0.075000 159.866916 -4.744190 79.977765 -0.000000 -0.090000 0.009000 -17.880447 -4.897895 1.577810 -0.098000 -0.000000 0.075000 -159.816291 -0.295764 84.476524 -0.000000 -0.090000 0.009000 14.207482 3.078975 0.779104 
0.000000 0.000000 0.000000 -3.333528 -2.951706 -5.961553 0.000000 0.000000 0.000000 0.000000 -0.000000 -0.000002 -31.493056 2.576830 12.723546 0.055000 -0.000000 -0.055000 -156.037106 -10.106734 29.542139 -0.000000 -0.015000 -0.120000 0.000038 0.000017 -35.681260 -0.000000 0.010000 -0.100000 -179.590808 25.271258 -16.727596 34.501905 -5.273890 13.295472 -0.055000 0.000000 -0.055000 145.196872 2.873787 31.083327 0.000000 -0.015000 -0.120000 0.000036 -0.000008 -84.346040 -0.000000 0.010000 -0.100000 162.043875 -20.737508 -1.035899 -0.000000 0.000000 0.040000 0.985037 -0.000000 -0.000001 0.000000 0.000000 0.100000 0.000000 0.000000 25.585132 0.098000 -0.000000 0.075000 159.111552 -4.905701 80.063464 -0.000000 -0.090000 0.009000 -17.930898 -4.925813 1.591557 -0.098000 -0.000000 0.075000 -160.546889 -0.533479 84.214566 -0.000000 -0.090000 0.009000 14.179127 3.066607 0.774363 
0.000000 0.000000 0.000000 -3.164569 -3.144208 -6.124150 0.000000 0.000000 0.000000 0.000000 0.000000 -0.000001 -31.493067 2.576838 12.723533 0.055000 -0.000000 -0.055000 -156.218434 -10.417275 28.810274 0.000000 -0.015000 -0.120000 0.000099 -0.000002 -35.482211 0.000000 0.010000 -0.100000 -179.689477 25.290312 -17.127159 34.501891 -5.273909 13.295461 -0.055000 0.000000 -0.055000 144.620213 2.689324 32.386100 -0.000000 -0.015000 -0.120000 -0.000044 -0.000046 -85.681281 0.000000 0.010000 -0.100000 162.623471 -21.251806 -2.814531 -0.000000 -0.000000 0.040000 0.793255 0.000000 0.000000 0.000000 0.000000 0.100000 0.000000 -0.000000 24.344671 0.098000 -0.000000 0.075000 158.763663 -5.030496 79.853442 0.000000 -0.090000 0.009000 -18.029053 -4.980512 1.618589 -0.098000 -0.000000 0.075000 -160.856761 -0.533933 83.742279 -0.000000 -0.090000 0.009000 14.248964 3.097127 0.786076 
0.000000 0.000000 0.000000 -3.276292 -3.492498 -6.213596 0.000000 0.000000 0.000000 -0.000000 -0.000000 0.000000 -31.493063 2.576833 12.723544 0.055000 -0.000000 -0.055000 -156.218161 -10.968058 28.170111 -0.000000 -0.015000 -0.120000 0.000051 0.000031 -35.440564 -0.000000 0.010000 -0.100000 -179.717030 25.319083 -17.581906 34.501908 -5.273882 13.295460 -0.055000 0.000000 -0.055000 144.235195 2.253602 33.719087 -0.000000 -0.015000 -0.120000 -0.000032 0.000006 -86.807517 0.000000 0.010000 -0.100000 162.800837 -21.569266 -4.147087 -0.000000 -0.000000 0.040000 0.923159 0.000000 0.000000 -0.000000 0.000000 0.100000 -0.000000 -0.000000 24.037920 0.098000 0.000000 0.075000 158.553771 -5.190256 79.959290 0.000000 -0.090000 0.009000 -18.051664 -4.993222 1.624881 -0.098000 -0.000000 0.075000 -160.999826 -0.711331 83.502860 0.000000 -0.090000 0.009000 14.280898 3.111097 0.791462 
0.000000 0.000000 0.000000 -3.179483 -3.876342 -6.280738 0.000000 0.000000 0.000000 0.000000 0.000000 -0.000001 -31.493053 2.576845 12.723545 0.055000 -0.000000 -0.055000 -156.238446 -11.535715 27.669902 -0.000000 -0.015000 -0.120000 0.000084 0.000018 -35.528090 0.000000 0.010000 -0.100000 -180.048923 25.323679 -18.154960 34.501905 -5.273880 13.295470 -0.055000 0.000000 -0.055000 143.724146 0.878880 33.845684 -0.000000 -0.015000 -0.120000 0.000007 -0.000040 -87.708392 0.000000 0.010000 -0.100000 163.144806 -21.820581 -5.013621 -0.000000 -0.000000 0.040000 0.444082 0.000000 -0.000000 0.000000 0.000000 0.100000 -0.000000 0.000001 25.209605 0.098000 0.000000 0.075000 158.085548 -5.402468 80.100190 0.000000 -0.090000 0.009000 -18.104682 -5.022874 1.639635 -0.098000 -0.000000 0.075000 -161.170389 -0.921076 83.217898 0.000000 -0.090000 0.009000 14.364738 3.148063 0.805760 
0.000000 0.000000 0.000000 -3.086467 -4.010991 -6.304198 0.000000 0.000000 0.000000 -0.000000 -0.000000 -0.000002 -31.493053 2.576840 12.723539 0.055000 -0.000000 -0.055000 -156.302145 -11.761495 27.253522 -0.000000 -0.015000 -0.120000 0.000054 -0.000012 -35.650743 0.000000 0.010000 -0.100000 -180.248706 25.333998 -18.641277 34.501905 -5.273886 13.295464 -0.055000 -0.000000 -0.055000 143.390164 -0.264065 33.914772 -0.000000 -0.015000 -0.120000 0.000024 0.000041 -88.430787 0.000000 0.010000 -0.100000 162.657759 -21.473237 -3.836299 0.000000 0.000000 0.040000 0.005144 -0.000000 -0.000001 -0.000000 -0.000000 0.100000 -0.000001 0.000001 26.072340 0.098000 -0.000000 0.075000 157.547507 -5.320501 80.284823 -0.000000 -0.090000 0.009000 -18.099501 -5.019979 1.638190 -0.098000 -0.000000 0.075000 -161.403490 -0.990597 83.114523 -0.000000 -0.090000 0.009000 14.395242 3.161552 0.811001 
0.000000 0.000000 0.000000 -3.137069 -4.183545 -6.372917 0.000000 0.000000 0.000000 0.000000 -0.000000 0.000000 -31.493067 2.576835 12.723536 0.055000 0.000000 -0.055000 -156.345380 -12.060278 26.795011 -0.000000 -0.015000 -0.120000 0.000026 0.000004 -35.853101 0.000000 0.010000 -0.100000 -180.291517 25.358158 -19.122728 34.501901 -5.273880 13.295467 -0.055000 0.000000 -0.055000 143.230433 -1.326192 34.034648 0.000000 -0.015000 -0.120000 -0.000058 -0.000026 -88.951261 -0.000000 0.010000 -0.100000 163.614586 -22.047974 -5.687710 0.000000 0.000000 0.040000 0.053870 -0.000000 0.000000 -0.000000 0.000000 0.100000 0.000000 0.000000 25.519054 0.098000 0.000000 0.075000 157.142750 -5.297896 80.337218 0.000000 -0.090000 0.009000 -18.198288 -5.075485 1.665918 -0.098000 0.000000 0.075000 -161.705535 -1.041243 82.894686 -0.000000 -0.090000 0.009000 14.456287 3.188675 0.821571 
0.000000 0.000000 0.000000 -2.934778 -4.379670 -6.487688 0.000000 0.000000 0.000000 -0.000000 0.000000 -0.000001 -31.493056 2.576846 12.723532 0.055000 -0.000000 -0.055000 -156.396497 -12.388179 26.330466 0.000000 -0.015000 -0.120000 0.000018 0.000062 -36.142431 -0.000000 0.010000 -0.100000 -180.549384 25.355732 -19.538707 34.501908 -5.273889 13.295470 -0.055000 -0.000000 -0.055000 142.862873 -2.355586 34.097793 0.000000 -0.015000 -0.120000 0.000005 -0.000028 -89.245895 -0.000000 0.010000 -0.100000 164.349569 -22.438476 -7.006193 -0.000000 0.000000 0.040000 -0.175454 0.000000 0.000000 -0.000000 -0.000000 0.100000 -0.000001 0.000000 24.839194 0.098000 0.000000 0.075000 156.655224 -5.438849 80.256137 0.000000 -0.090000 0.009000 -18.476782 -5.233772 1.745868 -0.098000 0.000000 0.075000 -162.374388 -1.123102 82.658867 0.000000 -0.090000 0.009000 14.577526 3.242745 0.842802 
0.000000 0.000000 0.000000 -2.639750 -4.418024 -6.515011 0.000000 0.000000 0.000000 0.000000 -0.000000 -0.000001 -31.493063 2.576848 12.723554 0.055000 -0.000000 -0.055000 -156.520533 -12.494019 26.012506 -0.000000 -0.015000 -0.120000 0.000069 0.000012 -36.471001 0.000000 0.010000 -0.100000 -180.996325 25.345597 -20.198138 34.501898 -5.273898 13.295464 -0.055000 -0.000000 -0.055000 142.540734 -3.272564 34.164210 -0.000000 -0.015000 -0.120000 -0.000018 0.000030 -89.351619 0.000000 0.010000 -0.100000 165.222317 -22.889221 -8.668071 0.000000 0.000000 0.040000 -0.866798 0.000000 -0.000000 0.000000 -0.000000 0.100000 -0.000000 -0.000000 25.421394 0.098000 -0.000000 0.075000 156.071093 -5.538004 80.020502 0.000000 -0.090000 0.009000 -18.846582 -5.447809 1.856079 -0.098000 0.000000 0.075000 -162.936963 -1.007849 82.479561 -0.000000 -0.090000 0.009000 14.876975 3.378500 0.896901 
0.000000 0.000000 0.000000 -2.485559 -4.526655 -6.433609 0.000000 0.000000 0.000000 -0.000000 0.000000 -0.000001 -31.493053 2.576838 12.723537 0.055000 0.000000 -0.055000 -156.669240 -12.689960 25.887467 0.000000 -0.015000 -0.120000 0.000044 0.000048 -36.864225 -0.000000 0.010000 -0.100000 -181.207077 25.351948 -20.765587 34.501901 -5.273862 13.295468 -0.055000 0.000000 -0.055000 142.411370 -4.370835 34.331167 -0.000000 -0.015000 -0.120000 -0.000033 -0.000025 -89.321894 -0.000000 0.010000 -0.100000 166.259126 -23.318305 -10.304302 0.000000 0.000000 0.040000 -1.189209 0.000001 0.000000 0.000000 0.000000 0.100000 -0.000000 0.000000 25.614762 0.098000 0.000000 0.075000 155.574975 -5.487829 80.131151 0.000000 -0.090000 0.009000 -18.974633 -5.523027 1.895367 -0.098000 0.000000 0.075000 -163.935755 -1.158415 82.481119 0.000000 -0.090000 0.009000 14.647633 3.274266 0.855259 
0.000000 0.000000 0.000000 -2.444680 -4.629301 -6.434077 0.000000 0.000000 0.000000 0.000000 0.000000 -0.000002 -31.493070 2.576831 12.723550 0.055000 0.000000 -0.055000 -156.676015 -12.908898 25.670769 -0.000001 -0.015000 -0.120000 0.000042 0.000065 -37.314771 -0.000000 0.010000 -0.100000 -181.454685 25.352322 -21.332774 34.501895 -5.273885 13.295471 -0.055000 -0.000000 -0.055000 142.460029 -5.209225 34.510268 -0.000001 -0.015000 -0.120000 0.000015 0.000038 -89.040907 -0.000000 0.010000 -0.100000 167.264953 -23.646333 -11.608670 0.000001 -0.000000 0.040000 -1.524536 0.000000 0.000000 0.000000 -0.000000 0.100000 -0.000001 0.000001 25.463949 0.098001 -0.000000 0.075000 155.134510 -5.361502 80.241281 -0.000000 -0.090000 0.009000 -19.020776 -5.550230 1.909653 -0.098000 -0.000000 0.075000 -164.456407 -1.184935 82.471898 -0.000000 -0.090000 0.009000 14.583994 3.245701 0.843960 
0.000000 0.000000 0.000000 -2.374178 -4.637533 -6.599932 0.000000 0.000000 0.000000 0.000000 0.000000 -0.000002 -31.493056 2.576843 12.723537 0.055000 -0.000000 -0.055000 -156.703541 -13.018460 25.236115 -0.000000 -0.015000 -0.120000 0.000038 0.000014 -37.781769 0.000000 0.010000 -0.100000 -181.678852 25.355341 -21.962472 34.501884 -5.273878 13.295466 -0.055000 -0.000000 -0.055000 142.535926 -5.718341 34.635862 0.000000 -0.015000 -0.120000 -0.000054 0.000030 -88.533424 0.000000 0.010000 -0.100000 168.145529 -23.879929 -12.583955 0.000000 0.000000 0.040000 -1.699749 0.000001 -0.000001 0.000000 -0.000000 0.100000 0.000000 0.000001 25.606762 0.098000 -0.000000 0.075000 154.710027 -5.278555 80.092820 0.000000 -0.090000 0.009000 -19.085871 -5.588636 1.929901 -0.098000 0.000000 0.075000 -164.622176 -0.970677 82.204277 -0.000000 -0.090000 0.009000 14.792366 3.339890 0.881390 
